<mxfile host="app.diagrams.net" modified="2022-04-27T13:07:20.347Z" agent="5.0 (Windows NT 10.0; Win64; x64) AppleWebKit/537.36 (KHTML, like Gecko) Chrome/101.0.4951.41 Safari/537.36" etag="yBpGw-QXJAtME_6jGWMV" version="17.4.6" type="github">
  <diagram id="dvhJTW2ZhVD54VRgB-qG" name="Page-1">
    <mxGraphModel dx="1422" dy="772" grid="1" gridSize="10" guides="1" tooltips="1" connect="1" arrows="1" fold="1" page="1" pageScale="1" pageWidth="827" pageHeight="1169" math="0" shadow="0">
      <root>
        <mxCell id="0" />
        <mxCell id="1" parent="0" />
        <mxCell id="c4l4Z9m1jqHR1qB3ZmxV-1" value="Synergy&amp;nbsp;start：&lt;br&gt;1、代码仓库区&lt;br&gt;2、图文管理区&lt;br&gt;3、wiki沉淀&lt;br&gt;4、文件保密与分享&lt;br&gt;" style="text;html=1;align=center;verticalAlign=middle;resizable=0;points=[];autosize=1;strokeColor=none;fillColor=none;" parent="1" vertex="1">
          <mxGeometry x="120" y="120" width="120" height="80" as="geometry" />
        </mxCell>
      </root>
    </mxGraphModel>
  </diagram>
</mxfile>
